<svg width="634" height="587" viewBox="0 0 634 587" fill="none" xmlns="http://www.w3.org/2000/svg">
<path fill-rule="evenodd" clip-rule="evenodd" d="M571.767 158.852C571.326 158.537 570.277 158.425 569.79 158.33C567.762 157.938 565.674 157.768 563.607 157.768C557.234 157.777 550.758 158.391 544.491 159.454C540.512 160.128 535.702 162.4 531.744 161.166C524.848 159.018 517.879 159.123 511.336 162.191C505.355 164.996 500.814 170.323 498.164 176.079C497.764 176.949 496.142 180.147 495.683 182.303C495.487 182.744 495.298 183.187 495.128 183.637C494.646 184.917 494.213 186.218 493.811 187.522C493.639 188.078 493.207 189.306 493.72 189.544C492.901 191.03 492.174 192.56 491.569 194.14C489.809 198.737 487.883 203.779 487.265 208.65C487.036 210.454 487.027 212.268 487.24 214.075C487.345 214.969 487.302 216.765 487.918 217.444C489.228 218.885 489.9 216.868 489.752 215.907C488.626 208.583 490.802 201.704 493.381 194.819C495.049 190.368 497.789 186.294 500.859 182.606C503.343 179.62 506.008 177.269 509.414 175.29C513.579 172.869 518.031 170.912 522.443 168.949C525.344 167.657 528.25 166.4 531.232 165.288C531.895 165.04 532.938 164.404 533.674 164.402C535.229 164.397 537.433 165.523 538.935 165.942C543.875 167.321 548.879 169.087 553.985 169.791C557.26 170.243 560.328 169.734 563.391 168.663C563.704 168.554 564.229 168.273 564.872 167.871C567.146 167.012 569.297 165.932 571.17 164.372C572.249 163.474 573.229 162.313 574.122 161.25C574.389 160.933 574.507 160.568 574.511 160.222C574.713 160.119 574.847 159.997 574.878 159.855C575.101 158.809 573.069 158.791 571.767 158.852Z" fill="#89C5CC"/>
<path fill-rule="evenodd" clip-rule="evenodd" d="M54.0711 246.037C52.8208 247.031 51.5946 248.046 50.3982 249.102C49.4864 249.907 47.8729 250.871 47.5455 252.091C47.2053 253.359 48.2795 254.545 49.1281 255.311C53.6154 259.364 58.6683 262.104 64.8863 262.56C74.4605 263.262 82.7929 260.862 91.1001 256.139C96.9352 252.821 100.8 247.914 101.645 241.288C108.594 244.123 115.314 248.031 121.026 252.828C123.844 255.194 126.271 257.816 128.516 260.722C129.954 262.585 131.345 264.476 132.636 266.441C133.197 267.294 133.767 268.808 134.694 269.3C135.781 269.877 137.096 268.972 137.042 267.785C136.996 266.797 135.91 265.651 135.402 264.844C134.558 263.503 133.702 262.17 132.8 260.866C131.34 258.754 129.832 256.673 128.187 254.697C124.489 250.257 119.784 246.59 114.908 243.462C105.552 237.462 95.2842 233.682 83.9007 233.362C76.901 233.165 71.0126 235.513 65.0267 239.019C61.2999 241.202 57.4529 243.348 54.0711 246.037Z" fill="#DDE3E9"/>
<path fill-rule="evenodd" clip-rule="evenodd" d="M144.869 217.016C137.575 209.641 130.255 202.359 122.105 195.864C117.302 192.038 112.241 188.558 107.284 184.93C107.856 185.422 108.416 185.928 108.964 186.447C107.417 185.416 105.391 184.833 103.751 183.878C101.921 182.814 100.172 181.595 98.456 180.368C95.1069 177.972 91.8083 175.531 88.3655 173.261C84.5301 170.731 80.5552 168.393 76.6545 165.959C73.3439 163.893 69.9928 161.631 66.4512 159.942C64.5209 159.022 62.586 157.931 60.6479 156.971C59.9992 156.649 53.4171 152.569 53.4337 152.556C53.7975 152.288 57.1098 153.815 57.622 154.021C59.1183 154.621 60.5492 155.338 61.9878 156.054C61.1982 154.525 60.5732 152.918 60.233 151.228C60.1278 150.705 59.2857 146.906 59.7166 146.587C59.9318 146.428 62.0318 153.227 62.1393 153.88C62.2267 154.411 62.2139 155.175 62.3909 155.678C62.6767 156.49 62.6623 156.244 63.2919 156.702C64.4458 157.541 65.9776 158.064 67.2265 158.765C67.9 159.134 69.9852 160.598 71.2411 161.015C75.0413 162.827 78.8932 165.615 82.5039 167.929C81.5563 166.181 80.8351 164.352 80.3093 162.436C80.1841 161.982 78.8346 157.902 79.1621 157.659C79.5305 157.386 82.1019 163.619 82.2542 164.208C82.5372 165.305 82.596 166.524 82.9504 167.591C83.3389 168.761 84.5525 169.176 85.646 169.858C89.6694 172.368 93.5553 175.034 97.3758 177.824C101.545 170.544 96.7379 161.755 92.6872 155.648C89.7663 151.245 85.8357 147.472 81.6844 144.178C76.1447 139.78 69.8065 136.268 63.4761 133.055C56.0999 129.312 48.1276 126.992 39.8394 125.921C35.5045 125.359 31.0696 125.376 26.6909 125.555C24.552 125.642 22.4988 125.921 20.449 126.606C19.5251 126.915 18.6322 127.305 17.7621 127.741C17.1009 128.072 15.5017 128.421 15.1215 128.915C11.9925 132.914 10.3917 136.898 10.6362 141.922C10.8673 146.678 12.3973 151.436 14.4737 155.678C16.7862 160.402 19.7602 164.689 23.6499 168.288C26.6174 171.033 29.9352 173.422 33.231 175.781C44.9535 184.168 59.8156 191.462 74.9982 189.588C79.9129 188.982 84.5873 187.295 88.9553 185.001C89.985 184.461 91.0081 183.915 91.9797 183.277C92.635 182.847 94.3862 180.909 95.0447 180.838C95.9485 180.742 97.8935 182.545 98.741 183.094C105.181 187.268 111.452 191.667 117.591 196.244C124.123 201.114 130.334 206.315 136.363 211.761C138.927 214.078 141.475 216.399 143.965 218.793C144.544 219.35 145.962 221.401 147.013 221.494C147.677 221.553 148.126 220.995 148.031 220.392C147.866 219.342 145.616 217.771 144.869 217.016Z" fill="#C1DEE2"/>
<path fill-rule="evenodd" clip-rule="evenodd" d="M564.109 188.394C561.284 187.788 558.164 187.835 555.286 187.884C539.85 188.091 524.692 195.265 514.828 206.729C506.43 216.487 504.12 228.621 502.461 240.886C502.297 242.103 502.227 243.314 502.134 244.534C502.114 244.796 502.084 245.029 502.052 245.25C501.4 245.822 501.057 246.49 501.444 247.224C500.007 250.311 498.791 253.477 497.747 256.743C494.676 266.356 491.553 276.151 493.477 286.259C493.926 280.696 494.872 275.009 496.003 269.537C496.068 269.223 496.138 268.912 496.211 268.601C496.219 268.569 496.226 268.535 496.233 268.503C496.633 266.827 497.154 265.203 497.787 263.603C497.793 263.585 497.8 263.568 497.806 263.551C497.89 263.34 497.979 263.13 498.067 262.921C498.248 262.488 498.434 262.055 498.632 261.625C498.699 261.478 498.762 261.33 498.825 261.181C499.746 258.964 500.134 256.466 500.96 254.173C501.157 253.651 501.364 253.132 501.58 252.615C501.593 252.584 501.605 252.554 501.619 252.524C502.204 251.133 502.849 249.759 503.532 248.4C503.903 248.126 504.101 247.446 504.422 246.829C504.487 246.707 505.005 245.896 505.159 245.429C505.562 244.665 505.962 243.901 506.367 243.139C506.355 243.144 506.343 243.148 506.331 243.153C506.736 242.42 507.142 241.691 507.546 240.965C507.634 240.806 507.724 240.646 507.813 240.486C507.958 240.231 508.103 239.977 508.247 239.723C509.599 237.348 511.033 235.02 512.522 232.721C513.054 231.901 514.323 230.724 514.566 229.803C514.575 229.768 514.577 229.737 514.583 229.704C517.813 225.249 521.532 221.141 525.993 217.885C525.454 218.458 524.307 220.399 524.005 220.784C523.077 221.96 522.071 223.056 521.061 224.165C519.251 226.152 517.485 228.201 515.915 230.368C513.044 234.332 510.568 238.503 508.226 242.759C508.204 242.783 508.179 242.807 508.159 242.833C506.982 244.257 506.241 246.409 505.394 248.038C508.746 246.514 512.453 245.521 515.892 244.167C519.324 242.818 522.66 241.315 525.883 239.552C530.165 237.206 534.607 234.559 538.653 231.563C543.289 228.74 547.186 224.853 550.626 220.775C554.695 215.949 558.424 211.082 560.73 205.222C561.863 202.344 562.755 199.341 563.283 196.304C563.306 196.172 563.335 196.028 563.368 195.879C563.909 194.83 564.392 193.757 564.797 192.66C565.441 190.92 566.963 189.006 564.109 188.394Z" fill="#69A1AC"/>
<path fill-rule="evenodd" clip-rule="evenodd" d="M85.3296 208.781C84.4448 207.84 83.4508 206.991 82.2834 206.385C81.9882 206.232 79.79 205.208 79.6469 205.432C79.3134 205.956 85.0636 208.48 85.3296 208.781ZM95.7522 202.496C95.7447 202.535 96.5069 203.805 96.7148 204.195C97.1563 205.026 97.5639 205.871 97.9474 206.719C97.38 205.222 96.796 203.833 95.7522 202.496ZM42.4503 212.831C41.7162 213.063 40.8336 212.148 41.7858 211.923C42.5562 211.742 42.5185 211.7 42.8644 211.09C43.1453 210.595 43.3183 209.992 43.5649 209.473C44.0877 208.372 44.6809 207.321 45.4089 206.337C46.9693 204.228 48.8703 202.41 51.0025 200.878C54.7236 198.206 58.8959 195.762 63.3219 194.535C70.359 192.583 78.3684 192.463 85.4165 193.816C89.7821 194.654 93.7707 196.111 96.6692 199.561C98.1181 201.285 99.2554 203.306 99.7524 205.53C99.8825 206.111 99.8576 206.758 100.02 207.327C100.27 208.203 100.16 207.969 101.203 208.139C102.341 208.326 103.478 208.515 104.616 208.709C107.594 209.215 110.589 209.751 113.491 210.572C114.446 210.842 115.38 211.172 116.293 211.555C116.983 211.845 119.73 212.754 120.064 213.634C120.62 215.099 118.758 214.435 118.179 214.116C117.672 213.837 117.152 213.576 116.624 213.336C115.294 212.733 113.909 212.265 112.493 211.893C110.962 211.492 109.401 211.191 107.844 210.891C106.394 210.611 104.937 210.356 103.478 210.112C102.668 209.977 101.858 209.846 101.047 209.715C100.77 209.669 100.282 209.434 100.318 209.788C98.6134 209.465 96.7703 209.511 95.034 209.423C92.9076 209.314 90.7728 209.224 88.6389 209.289C87.0998 209.336 85.5598 209.436 84.0282 209.639C83.1335 209.758 82.2531 209.931 81.3753 210.151C80.8931 210.272 78.9916 210.528 78.729 210.94C78.8418 210.763 80.9403 210.935 81.2075 210.925C82.2758 210.886 83.3356 210.782 84.4001 210.665C86.3758 210.448 88.3515 210.335 90.333 210.351C90.3255 210.693 88.9719 211.301 88.6414 211.527C87.9008 212.036 87.1909 212.589 86.529 213.196C85.3635 214.265 83.9669 215.59 83.1609 216.858C83.3986 216.484 84.5708 215.998 84.9866 215.713C85.6534 215.256 86.307 214.768 86.925 214.247C87.4949 213.765 88.0276 213.245 88.5511 212.714C89.0747 212.183 89.7846 211.078 90.473 210.724C90.5144 210.702 90.8142 210.934 90.9841 210.856C91.1564 210.776 91.3701 210.377 91.4132 210.361C92.0535 210.119 93.2696 210.421 93.943 210.451C95.6884 210.53 97.433 210.634 99.1767 210.728C99.7177 210.757 100.177 210.636 100.381 211.027C100.598 211.445 100.2 212.542 100.086 212.997C99.6655 214.685 98.9191 216.199 97.7428 217.507C95.541 219.957 92.8247 221.59 89.7572 222.683C78.0073 226.868 65.5067 228.544 53.7601 224.191C48.8971 222.388 41.5734 219.168 42.4503 212.831Z" fill="#89C5CC"/>
<g opacity="0.6">
<path opacity="0.6" fill-rule="evenodd" clip-rule="evenodd" d="M580.454 409.994C588.448 463.118 394.587 497.769 227.728 473.587C60.8679 449.405 -15.6795 354.972 63.9432 304.654C143.566 254.336 572.46 356.87 580.454 409.994Z" fill="#DDE3E9"/>
</g>
<path d="M239.401 61.8059H120.943C117.283 61.8059 114.316 64.7187 114.316 68.3118V300.897C114.316 304.49 117.283 307.403 120.943 307.403H239.401C243.061 307.403 246.028 304.49 246.028 300.897V68.3118C246.028 64.7187 243.061 61.8059 239.401 61.8059Z" fill="#F2F2F2"/>
<path fill-rule="evenodd" clip-rule="evenodd" d="M179.758 291.952C186.62 291.952 192.184 286.49 192.184 279.753C192.184 273.016 186.62 267.554 179.758 267.554C172.896 267.554 167.333 273.016 167.333 279.753C167.333 286.49 172.896 291.952 179.758 291.952Z" fill="white"/>
<path fill-rule="evenodd" clip-rule="evenodd" d="M168.989 78.0706C169.905 78.0706 170.646 77.3424 170.646 76.4441C170.646 75.5458 169.905 74.8176 168.989 74.8176C168.074 74.8176 167.333 75.5458 167.333 76.4441C167.333 77.3424 168.074 78.0706 168.989 78.0706Z" fill="white"/>
<path d="M190.527 74.8176H176.445C175.53 74.8176 174.788 75.5458 174.788 76.4441C174.788 77.3424 175.53 78.0706 176.445 78.0706H190.527C191.442 78.0706 192.184 77.3424 192.184 76.4441C192.184 75.5458 191.442 74.8176 190.527 74.8176Z" fill="white"/>
<path d="M231.118 84.5764H129.227C127.397 84.5764 125.914 86.0328 125.914 87.8294V125.238C125.914 127.035 127.397 128.491 129.227 128.491H231.118C232.948 128.491 234.431 127.035 234.431 125.238V87.8294C234.431 86.0328 232.948 84.5764 231.118 84.5764Z" fill="white"/>
<path d="M216.207 97.7509H160.705C159.333 97.7509 158.22 98.8431 158.22 100.191V101.898C158.22 103.246 159.333 104.338 160.705 104.338H216.207C217.579 104.338 218.692 103.246 218.692 101.898V100.191C218.692 98.8431 217.579 97.7509 216.207 97.7509Z" fill="#DDE3E9"/>
<path d="M196.326 108.73H160.705C159.333 108.73 158.22 109.822 158.22 111.169V112.877C158.22 114.225 159.333 115.317 160.705 115.317H196.326C197.698 115.317 198.811 114.225 198.811 112.877V111.169C198.811 109.822 197.698 108.73 196.326 108.73Z" fill="#DDE3E9"/>
<path fill-rule="evenodd" clip-rule="evenodd" d="M143.309 116.293C148.799 116.293 153.25 111.923 153.25 106.534C153.25 101.145 148.799 96.775 143.309 96.775C137.82 96.775 133.369 101.145 133.369 106.534C133.369 111.923 137.82 116.293 143.309 116.293Z" fill="#C5CFD6"/>
<path d="M231.118 134.997H129.227C127.397 134.997 125.914 136.453 125.914 138.25V165.9C125.914 167.697 127.397 169.153 129.227 169.153H231.118C232.948 169.153 234.431 167.697 234.431 165.9V138.25C234.431 136.453 232.948 134.997 231.118 134.997Z" fill="white"/>
<path d="M216.207 145.244H160.705C159.333 145.244 158.22 146.336 158.22 147.684V147.928C158.22 149.275 159.333 150.367 160.705 150.367H216.207C217.579 150.367 218.692 149.275 218.692 147.928V147.684C218.692 146.336 217.579 145.244 216.207 145.244Z" fill="#DDE3E9"/>
<path d="M196.326 153.783H160.705C159.333 153.783 158.22 154.875 158.22 156.223V156.467C158.22 157.814 159.333 158.906 160.705 158.906H196.326C197.698 158.906 198.811 157.814 198.811 156.467V156.223C198.811 154.875 197.698 153.783 196.326 153.783Z" fill="#DDE3E9"/>
<path fill-rule="evenodd" clip-rule="evenodd" d="M143.309 161.834C148.799 161.834 153.25 157.464 153.25 152.075C153.25 146.686 148.799 142.316 143.309 142.316C137.82 142.316 133.369 146.686 133.369 152.075C133.369 157.464 137.82 161.834 143.309 161.834Z" fill="#C5CFD6"/>
<path d="M231.118 175.659H129.227C127.397 175.659 125.914 177.115 125.914 178.912V206.562C125.914 208.358 127.397 209.815 129.227 209.815H231.118C232.948 209.815 234.431 208.358 234.431 206.562V178.912C234.431 177.115 232.948 175.659 231.118 175.659Z" fill="white"/>
<path d="M216.207 185.906H160.705C159.333 185.906 158.22 186.998 158.22 188.345V188.589C158.22 189.937 159.333 191.029 160.705 191.029H216.207C217.579 191.029 218.692 189.937 218.692 188.589V188.345C218.692 186.998 217.579 185.906 216.207 185.906Z" fill="#DDE3E9"/>
<path d="M196.326 194.445H160.705C159.333 194.445 158.22 195.537 158.22 196.884V197.128C158.22 198.476 159.333 199.568 160.705 199.568H196.326C197.698 199.568 198.811 198.476 198.811 197.128V196.884C198.811 195.537 197.698 194.445 196.326 194.445Z" fill="#DDE3E9"/>
<path fill-rule="evenodd" clip-rule="evenodd" d="M143.309 202.496C148.799 202.496 153.25 198.126 153.25 192.737C153.25 187.347 148.799 182.978 143.309 182.978C137.82 182.978 133.369 187.347 133.369 192.737C133.369 198.126 137.82 202.496 143.309 202.496Z" fill="#AFB9C5"/>
<path d="M231.118 216.321H129.227C127.397 216.321 125.914 217.777 125.914 219.573V247.223C125.914 249.02 127.397 250.476 129.227 250.476H231.118C232.948 250.476 234.431 249.02 234.431 247.223V219.573C234.431 217.777 232.948 216.321 231.118 216.321Z" fill="white"/>
<path d="M216.207 226.567H160.705C159.333 226.567 158.22 227.66 158.22 229.007V229.251C158.22 230.598 159.333 231.691 160.705 231.691H216.207C217.579 231.691 218.692 230.598 218.692 229.251V229.007C218.692 227.66 217.579 226.567 216.207 226.567Z" fill="#DDE3E9"/>
<path d="M196.326 235.106H160.705C159.333 235.106 158.22 236.199 158.22 237.546V237.79C158.22 239.137 159.333 240.23 160.705 240.23H196.326C197.698 240.23 198.811 239.137 198.811 237.79V237.546C198.811 236.199 197.698 235.106 196.326 235.106Z" fill="#DDE3E9"/>
<path fill-rule="evenodd" clip-rule="evenodd" d="M143.309 243.157C148.799 243.157 153.25 238.788 153.25 233.398C153.25 228.009 148.799 223.64 143.309 223.64C137.82 223.64 133.369 228.009 133.369 233.398C133.369 238.788 137.82 243.157 143.309 243.157Z" fill="#C5CFD6"/>
<path fill-rule="evenodd" clip-rule="evenodd" d="M139.284 260.235C138.186 260.235 137.092 260.257 135.996 260.313C135.16 260.356 133.883 260.186 133.177 260.697C132.442 261.228 132.492 262.315 132.608 263.082C133.214 267.142 134.694 270.742 137.792 273.618C142.561 278.046 148.027 280.296 154.496 281.298C159.04 282.002 163.235 281.025 166.58 277.852C169.025 282.306 170.879 287.234 171.809 292.208C172.268 294.662 172.408 297.087 172.328 299.586C172.275 301.187 172.186 302.784 172.011 304.377C171.935 305.069 171.575 306.116 171.851 306.771C172.175 307.539 173.268 307.614 173.758 306.958C174.167 306.413 174.092 305.342 174.176 304.697C174.315 303.626 174.443 302.553 174.535 301.476C174.685 299.733 174.795 297.986 174.788 296.236C174.769 292.305 173.878 288.359 172.661 284.628C170.325 277.469 166.535 271.107 160.64 266.116C157.015 263.047 152.866 261.804 148.16 261.136C145.23 260.721 142.252 260.235 139.284 260.235Z" fill="#89C5CC"/>
<path fill-rule="evenodd" clip-rule="evenodd" d="M156.208 288.698C144.363 288.698 136.386 298.07 132.614 307.811C131.192 311.482 130.859 315.514 130.311 319.369C130.135 320.607 130.201 322.492 129.689 323.594C129.503 323.994 129.077 324.137 129.281 324.682C129.404 325.011 129.646 325.214 130.009 325.279C130.754 325.414 131.808 324.617 132.446 324.303C137.745 321.694 141.225 317.66 144.065 312.726C145.826 309.667 147.612 306.491 148.658 303.133C149.296 301.082 149.668 298.922 149.887 296.793C149.973 295.955 150.056 295.097 150.051 294.255C150.046 293.418 149.649 292.975 149.364 292.247C153.316 290.779 157.778 290.379 161.782 291.9C165.484 293.308 168.56 296.028 170.282 299.446C170.73 300.334 171.075 301.271 171.326 302.227C171.491 302.854 171.498 303.665 171.804 304.231C172.543 305.604 174.099 304.687 173.95 303.409C173.533 299.846 171.457 296.269 168.803 293.792C165.455 290.667 160.919 288.698 156.208 288.698Z" fill="#89C5CC"/>
<path d="M294.074 82.95H175.616C171.956 82.95 168.989 85.8627 168.989 89.4558V322.041C168.989 325.634 171.956 328.547 175.616 328.547H294.074C297.734 328.547 300.701 325.634 300.701 322.041V89.4558C300.701 85.8627 297.734 82.95 294.074 82.95Z" fill="#DDE3E9"/>
<path fill-rule="evenodd" clip-rule="evenodd" d="M234.431 313.096C241.293 313.096 246.857 307.634 246.857 300.897C246.857 294.16 241.293 288.698 234.431 288.698C227.569 288.698 222.005 294.16 222.005 300.897C222.005 307.634 227.569 313.096 234.431 313.096Z" fill="white"/>
<path fill-rule="evenodd" clip-rule="evenodd" d="M223.662 99.2147C224.577 99.2147 225.319 98.4869 225.319 97.5883C225.319 96.6896 224.577 95.9618 223.662 95.9618C222.747 95.9618 222.005 96.6896 222.005 97.5883C222.005 98.4869 222.747 99.2147 223.662 99.2147Z" fill="white"/>
<path d="M245.2 95.9618H231.118C230.203 95.9618 229.461 96.69 229.461 97.5883C229.461 98.4865 230.203 99.2147 231.118 99.2147H245.2C246.115 99.2147 246.857 98.4865 246.857 97.5883C246.857 96.69 246.115 95.9618 245.2 95.9618Z" fill="white"/>
<path d="M285.79 105.721H183.9C182.07 105.721 180.586 107.177 180.586 108.974V146.382C180.586 148.179 182.07 149.635 183.9 149.635H285.79C287.62 149.635 289.104 148.179 289.104 146.382V108.974C289.104 107.177 287.62 105.721 285.79 105.721Z" fill="white"/>
<path d="M246.028 118.895H190.527C189.155 118.895 188.042 119.987 188.042 121.335V123.043C188.042 124.39 189.155 125.482 190.527 125.482H246.028C247.401 125.482 248.514 124.39 248.514 123.043V121.335C248.514 119.987 247.401 118.895 246.028 118.895Z" fill="#DDE3E9"/>
<path d="M226.147 129.874H190.527C189.155 129.874 188.042 130.966 188.042 132.313V134.021C188.042 135.369 189.155 136.461 190.527 136.461H226.147C227.52 136.461 228.633 135.369 228.633 134.021V132.313C228.633 130.966 227.52 129.874 226.147 129.874Z" fill="#DDE3E9"/>
<path fill-rule="evenodd" clip-rule="evenodd" d="M277.507 133.371C280.709 133.371 283.305 130.822 283.305 127.678C283.305 124.534 280.709 121.985 277.507 121.985C274.304 121.985 271.708 124.534 271.708 127.678C271.708 130.822 274.304 133.371 277.507 133.371Z" fill="#DDE3E9"/>
<path fill-rule="evenodd" clip-rule="evenodd" d="M277.507 130.118C278.879 130.118 279.992 129.026 279.992 127.678C279.992 126.33 278.879 125.238 277.507 125.238C276.134 125.238 275.022 126.33 275.022 127.678C275.022 129.026 276.134 130.118 277.507 130.118Z" fill="#F2F2F2"/>
<path d="M285.79 156.141H183.9C182.07 156.141 180.586 157.598 180.586 159.394V187.044C180.586 188.841 182.07 190.297 183.9 190.297H285.79C287.62 190.297 289.104 188.841 289.104 187.044V159.394C289.104 157.598 287.62 156.141 285.79 156.141Z" fill="white"/>
<path d="M270.88 166.388H215.378C214.006 166.388 212.893 167.48 212.893 168.828V169.072C212.893 170.419 214.006 171.511 215.378 171.511H270.88C272.252 171.511 273.365 170.419 273.365 169.072V168.828C273.365 167.48 272.252 166.388 270.88 166.388Z" fill="#DDE3E9"/>
<path d="M250.999 174.927H215.378C214.006 174.927 212.893 176.019 212.893 177.367V177.611C212.893 178.958 214.006 180.05 215.378 180.05H250.999C252.371 180.05 253.484 178.958 253.484 177.611V177.367C253.484 176.019 252.371 174.927 250.999 174.927Z" fill="#DDE3E9"/>
<path fill-rule="evenodd" clip-rule="evenodd" d="M197.983 182.978C203.472 182.978 207.923 178.608 207.923 173.219C207.923 167.83 203.472 163.46 197.983 163.46C192.493 163.46 188.042 167.83 188.042 173.219C188.042 178.608 192.493 182.978 197.983 182.978Z" fill="#C5CFD6"/>
<path d="M285.79 196.803H183.9C182.07 196.803 180.586 198.259 180.586 200.056V227.706C180.586 229.502 182.07 230.959 183.9 230.959H285.79C287.62 230.959 289.104 229.502 289.104 227.706V200.056C289.104 198.259 287.62 196.803 285.79 196.803Z" fill="white"/>
<path d="M246.028 207.05H190.527C189.155 207.05 188.042 208.142 188.042 209.489V209.733C188.042 211.081 189.155 212.173 190.527 212.173H246.028C247.401 212.173 248.514 211.081 248.514 209.733V209.489C248.514 208.142 247.401 207.05 246.028 207.05Z" fill="#DDE3E9"/>
<path d="M226.147 215.589H190.527C189.155 215.589 188.042 216.681 188.042 218.028V218.272C188.042 219.62 189.155 220.712 190.527 220.712H226.147C227.52 220.712 228.633 219.62 228.633 218.272V218.028C228.633 216.681 227.52 215.589 226.147 215.589Z" fill="#AFB9C5"/>
<path fill-rule="evenodd" clip-rule="evenodd" d="M277.507 219.574C280.709 219.574 283.305 217.025 283.305 213.881C283.305 210.737 280.709 208.188 277.507 208.188C274.304 208.188 271.708 210.737 271.708 213.881C271.708 217.025 274.304 219.574 277.507 219.574Z" fill="#DDE3E9"/>
<path fill-rule="evenodd" clip-rule="evenodd" d="M277.507 216.321C278.879 216.321 279.992 215.228 279.992 213.881C279.992 212.533 278.879 211.441 277.507 211.441C276.134 211.441 275.022 212.533 275.022 213.881C275.022 215.228 276.134 216.321 277.507 216.321Z" fill="#F2F2F2"/>
<path d="M285.79 237.465H183.9C182.07 237.465 180.586 238.921 180.586 240.718V268.368C180.586 270.164 182.07 271.621 183.9 271.621H285.79C287.62 271.621 289.104 270.164 289.104 268.368V240.718C289.104 238.921 287.62 237.465 285.79 237.465Z" fill="white"/>
<path d="M270.88 247.711H215.378C214.006 247.711 212.893 248.804 212.893 250.151V250.395C212.893 251.743 214.006 252.835 215.378 252.835H270.88C272.252 252.835 273.365 251.743 273.365 250.395V250.151C273.365 248.804 272.252 247.711 270.88 247.711Z" fill="#DDE3E9"/>
<path d="M250.999 256.25H215.378C214.006 256.25 212.893 257.343 212.893 258.69V258.934C212.893 260.282 214.006 261.374 215.378 261.374H250.999C252.371 261.374 253.484 260.282 253.484 258.934V258.69C253.484 257.343 252.371 256.25 250.999 256.25Z" fill="#DDE3E9"/>
<path fill-rule="evenodd" clip-rule="evenodd" d="M197.983 264.301C203.472 264.301 207.923 259.932 207.923 254.543C207.923 249.153 203.472 244.784 197.983 244.784C192.493 244.784 188.042 249.153 188.042 254.543C188.042 259.932 192.493 264.301 197.983 264.301Z" fill="#C5CFD6"/>
<path d="M494.542 103.281H230.289C226.629 103.281 223.662 106.194 223.662 109.787V378.154C223.662 381.747 226.629 384.66 230.289 384.66H494.542C498.202 384.66 501.169 381.747 501.169 378.154V109.787C501.169 106.194 498.202 103.281 494.542 103.281Z" fill="#F2F2F2"/>
<path d="M481.288 138.25H436.555C432.895 138.25 429.928 141.163 429.928 144.756V197.616C429.928 201.209 432.895 204.122 436.555 204.122H481.288C484.948 204.122 487.915 201.209 487.915 197.616V144.756C487.915 141.163 484.948 138.25 481.288 138.25Z" fill="white"/>
<path fill-rule="evenodd" clip-rule="evenodd" d="M458.922 176.472C466.242 176.472 472.176 170.647 472.176 163.46C472.176 156.274 466.242 150.448 458.922 150.448C451.601 150.448 445.667 156.274 445.667 163.46C445.667 170.647 451.601 176.472 458.922 176.472Z" fill="#DDE3E9"/>
<path d="M477.146 179.725H440.697C439.325 179.725 438.212 180.817 438.212 182.165C438.212 183.512 439.325 184.604 440.697 184.604H477.146C478.518 184.604 479.631 183.512 479.631 182.165C479.631 180.817 478.518 179.725 477.146 179.725Z" fill="#DDE3E9"/>
<path d="M470.519 187.857H447.324C445.952 187.857 444.839 188.95 444.839 190.297C444.839 191.645 445.952 192.737 447.324 192.737H470.519C471.891 192.737 473.004 191.645 473.004 190.297C473.004 188.95 471.891 187.857 470.519 187.857Z" fill="#DDE3E9"/>
<path d="M223.662 109.787C223.662 106.194 226.629 103.281 230.289 103.281H494.542C498.202 103.281 501.169 106.194 501.169 109.787V125.238H223.662V109.787Z" fill="#C5CFD6"/>
<path fill-rule="evenodd" clip-rule="evenodd" d="M234.431 117.919C236.261 117.919 237.745 116.463 237.745 114.666C237.745 112.87 236.261 111.413 234.431 111.413C232.601 111.413 231.118 112.87 231.118 114.666C231.118 116.463 232.601 117.919 234.431 117.919Z" fill="#F2F2F2"/>
<path fill-rule="evenodd" clip-rule="evenodd" d="M244.372 117.919C246.201 117.919 247.685 116.463 247.685 114.666C247.685 112.87 246.201 111.413 244.372 111.413C242.542 111.413 241.058 112.87 241.058 114.666C241.058 116.463 242.542 117.919 244.372 117.919Z" fill="#F2F2F2"/>
<path fill-rule="evenodd" clip-rule="evenodd" d="M254.312 117.919C256.142 117.919 257.626 116.463 257.626 114.666C257.626 112.87 256.142 111.413 254.312 111.413C252.482 111.413 250.999 112.87 250.999 114.666C250.999 116.463 252.482 117.919 254.312 117.919Z" fill="#F2F2F2"/>
<path d="M481.288 210.628H436.555C432.895 210.628 429.928 213.541 429.928 217.134V361.89C429.928 365.483 432.895 368.396 436.555 368.396H481.288C484.948 368.396 487.915 365.483 487.915 361.89V217.134C487.915 213.541 484.948 210.628 481.288 210.628Z" fill="white"/>
<path d="M469.69 225.266H448.153C446.323 225.266 444.839 226.723 444.839 228.519V243.157C444.839 244.954 446.323 246.41 448.153 246.41H469.69C471.52 246.41 473.004 244.954 473.004 243.157V228.519C473.004 226.723 471.52 225.266 469.69 225.266Z" fill="#DDE3E9"/>
<path d="M469.69 252.916H448.153C446.323 252.916 444.839 254.373 444.839 256.169V269.994C444.839 271.791 446.323 273.247 448.153 273.247H469.69C471.52 273.247 473.004 271.791 473.004 269.994V256.169C473.004 254.373 471.52 252.916 469.69 252.916Z" fill="#AFB9C5"/>
<path d="M469.69 279.753H448.153C446.323 279.753 444.839 281.209 444.839 283.006V296.831C444.839 298.627 446.323 300.084 448.153 300.084H469.69C471.52 300.084 473.004 298.627 473.004 296.831V283.006C473.004 281.209 471.52 279.753 469.69 279.753Z" fill="#DDE3E9"/>
<path d="M469.69 333.427H448.153C446.323 333.427 444.839 334.883 444.839 336.679V350.504C444.839 352.301 446.323 353.757 448.153 353.757H469.69C471.52 353.757 473.004 352.301 473.004 350.504V336.679C473.004 334.883 471.52 333.427 469.69 333.427Z" fill="#DDE3E9"/>
<path d="M469.69 306.59H448.153C446.323 306.59 444.839 308.046 444.839 309.843V323.668C444.839 325.464 446.323 326.921 448.153 326.921H469.69C471.52 326.921 473.004 325.464 473.004 323.668V309.843C473.004 308.046 471.52 306.59 469.69 306.59Z" fill="#C5CFD6"/>
<path d="M419.988 139.063H240.23C238.4 139.063 236.916 140.52 236.916 142.316V174.032C236.916 175.829 238.4 177.285 240.23 177.285H419.988C421.818 177.285 423.301 175.829 423.301 174.032V142.316C423.301 140.52 421.818 139.063 419.988 139.063Z" fill="white"/>
<path d="M380.226 150.53H246.857C245.484 150.53 244.372 151.622 244.372 152.97V153.824C244.372 155.171 245.484 156.263 246.857 156.263H380.226C381.598 156.263 382.711 155.171 382.711 153.824V152.97C382.711 151.622 381.598 150.53 380.226 150.53Z" fill="#DDE3E9"/>
<path d="M334.744 160.085H246.857C245.484 160.085 244.372 161.178 244.372 162.525V163.379C244.372 164.726 245.484 165.819 246.857 165.819H334.744C336.117 165.819 337.23 164.726 337.23 163.379V162.525C337.23 161.178 336.117 160.085 334.744 160.085Z" fill="#DDE3E9"/>
<path fill-rule="evenodd" clip-rule="evenodd" d="M403.382 163.867C406.585 163.867 409.181 161.318 409.181 158.174C409.181 155.03 406.585 152.482 403.382 152.482C400.18 152.482 397.583 155.03 397.583 158.174C397.583 161.318 400.18 163.867 403.382 163.867Z" fill="#DDE3E9"/>
<path fill-rule="evenodd" clip-rule="evenodd" d="M403.382 160.614C404.755 160.614 405.867 159.522 405.867 158.174C405.867 156.827 404.755 155.735 403.382 155.735C402.009 155.735 400.897 156.827 400.897 158.174C400.897 159.522 402.009 160.614 403.382 160.614Z" fill="#F2F2F2"/>
<path d="M419.988 183.791H240.23C238.4 183.791 236.916 185.248 236.916 187.044V212.254C236.916 214.051 238.4 215.507 240.23 215.507H419.988C421.818 215.507 423.301 214.051 423.301 212.254V187.044C423.301 185.248 421.818 183.791 419.988 183.791Z" fill="white"/>
<path d="M380.288 193.306H246.795C245.456 193.306 244.372 194.371 244.372 195.685C244.372 196.998 245.456 198.063 246.795 198.063H380.288C381.626 198.063 382.711 196.998 382.711 195.685C382.711 194.371 381.626 193.306 380.288 193.306Z" fill="#DDE3E9"/>
<path d="M334.806 201.235H246.795C245.456 201.235 244.372 202.3 244.372 203.614C244.372 204.928 245.456 205.993 246.795 205.993H334.806C336.145 205.993 337.23 204.928 337.23 203.614C337.23 202.3 336.145 201.235 334.806 201.235Z" fill="#DDE3E9"/>
<path fill-rule="evenodd" clip-rule="evenodd" d="M403.382 205.342C406.585 205.342 409.181 202.793 409.181 199.649C409.181 196.505 406.585 193.957 403.382 193.957C400.18 193.957 397.583 196.505 397.583 199.649C397.583 202.793 400.18 205.342 403.382 205.342Z" fill="#DDE3E9"/>
<path fill-rule="evenodd" clip-rule="evenodd" d="M403.382 202.089C404.755 202.089 405.867 200.997 405.867 199.649C405.867 198.302 404.755 197.21 403.382 197.21C402.009 197.21 400.897 198.302 400.897 199.649C400.897 200.997 402.009 202.089 403.382 202.089Z" fill="#F2F2F2"/>
<path d="M419.988 222.013H240.23C238.4 222.013 236.916 223.47 236.916 225.266V250.476C236.916 252.273 238.4 253.729 240.23 253.729H419.988C421.818 253.729 423.301 252.273 423.301 250.476V225.266C423.301 223.47 421.818 222.013 419.988 222.013Z" fill="white"/>
<path d="M380.288 231.528H246.795C245.456 231.528 244.372 232.593 244.372 233.907C244.372 235.221 245.456 236.285 246.795 236.285H380.288C381.626 236.285 382.711 235.221 382.711 233.907C382.711 232.593 381.626 231.528 380.288 231.528Z" fill="#DDE3E9"/>
<path d="M334.806 239.457H246.795C245.456 239.457 244.372 240.522 244.372 241.836C244.372 243.15 245.456 244.215 246.795 244.215H334.806C336.145 244.215 337.23 243.15 337.23 241.836C337.23 240.522 336.145 239.457 334.806 239.457Z" fill="#DDE3E9"/>
<path fill-rule="evenodd" clip-rule="evenodd" d="M403.382 243.564C406.585 243.564 409.181 241.015 409.181 237.871C409.181 234.727 406.585 232.179 403.382 232.179C400.18 232.179 397.583 234.727 397.583 237.871C397.583 241.015 400.18 243.564 403.382 243.564Z" fill="#DDE3E9"/>
<path fill-rule="evenodd" clip-rule="evenodd" d="M403.382 240.311C404.755 240.311 405.867 239.219 405.867 237.871C405.867 236.524 404.755 235.432 403.382 235.432C402.009 235.432 400.897 236.524 400.897 237.871C400.897 239.219 402.009 240.311 403.382 240.311Z" fill="#AFB9C5"/>
<path d="M419.988 336.679H240.23C238.4 336.679 236.916 338.136 236.916 339.932V365.143C236.916 366.939 238.4 368.396 240.23 368.396H419.988C421.818 368.396 423.301 366.939 423.301 365.143V339.932C423.301 338.136 421.818 336.679 419.988 336.679Z" fill="white"/>
<path d="M380.288 346.194H246.795C245.456 346.194 244.372 347.259 244.372 348.573C244.372 349.887 245.456 350.952 246.795 350.952H380.288C381.626 350.952 382.711 349.887 382.711 348.573C382.711 347.259 381.626 346.194 380.288 346.194Z" fill="#DDE3E9"/>
<path d="M334.806 354.123H246.795C245.456 354.123 244.372 355.188 244.372 356.502C244.372 357.816 245.456 358.881 246.795 358.881H334.806C336.145 358.881 337.23 357.816 337.23 356.502C337.23 355.188 336.145 354.123 334.806 354.123Z" fill="#DDE3E9"/>
<path fill-rule="evenodd" clip-rule="evenodd" d="M403.382 358.23C406.585 358.23 409.181 355.681 409.181 352.538C409.181 349.394 406.585 346.845 403.382 346.845C400.18 346.845 397.583 349.394 397.583 352.538C397.583 355.681 400.18 358.23 403.382 358.23Z" fill="#DDE3E9"/>
<path fill-rule="evenodd" clip-rule="evenodd" d="M403.382 354.977C404.755 354.977 405.867 353.885 405.867 352.537C405.867 351.19 404.755 350.098 403.382 350.098C402.009 350.098 400.897 351.19 400.897 352.537C400.897 353.885 402.009 354.977 403.382 354.977Z" fill="#F2F2F2"/>
<path d="M419.988 298.457H240.23C238.4 298.457 236.916 299.914 236.916 301.71V326.921C236.916 328.717 238.4 330.173 240.23 330.173H419.988C421.818 330.173 423.301 328.717 423.301 326.921V301.71C423.301 299.914 421.818 298.457 419.988 298.457Z" fill="white"/>
<path d="M380.288 307.972H246.795C245.456 307.972 244.372 309.037 244.372 310.351C244.372 311.665 245.456 312.73 246.795 312.73H380.288C381.626 312.73 382.711 311.665 382.711 310.351C382.711 309.037 381.626 307.972 380.288 307.972Z" fill="#DDE3E9"/>
<path d="M334.806 315.901H246.795C245.456 315.901 244.372 316.966 244.372 318.28C244.372 319.594 245.456 320.659 246.795 320.659H334.806C336.145 320.659 337.23 319.594 337.23 318.28C337.23 316.966 336.145 315.901 334.806 315.901Z" fill="#DDE3E9"/>
<path fill-rule="evenodd" clip-rule="evenodd" d="M403.382 320.008C406.585 320.008 409.181 317.459 409.181 314.315C409.181 311.171 406.585 308.623 403.382 308.623C400.18 308.623 397.583 311.171 397.583 314.315C397.583 317.459 400.18 320.008 403.382 320.008Z" fill="#DDE3E9"/>
<path fill-rule="evenodd" clip-rule="evenodd" d="M403.382 316.755C404.755 316.755 405.867 315.663 405.867 314.315C405.867 312.968 404.755 311.876 403.382 311.876C402.009 311.876 400.897 312.968 400.897 314.315C400.897 315.663 402.009 316.755 403.382 316.755Z" fill="#F2F2F2"/>
<path d="M419.988 260.235H240.23C238.4 260.235 236.916 261.692 236.916 263.488V288.699C236.916 290.495 238.4 291.952 240.23 291.952H419.988C421.818 291.952 423.301 290.495 423.301 288.699V263.488C423.301 261.692 421.818 260.235 419.988 260.235Z" fill="white"/>
<path d="M380.288 269.75H246.795C245.456 269.75 244.372 270.815 244.372 272.129C244.372 273.443 245.456 274.508 246.795 274.508H380.288C381.626 274.508 382.711 273.443 382.711 272.129C382.711 270.815 381.626 269.75 380.288 269.75Z" fill="#DDE3E9"/>
<path d="M334.806 277.679H246.795C245.456 277.679 244.372 278.744 244.372 280.058C244.372 281.372 245.456 282.437 246.795 282.437H334.806C336.145 282.437 337.23 281.372 337.23 280.058C337.23 278.744 336.145 277.679 334.806 277.679Z" fill="#DDE3E9"/>
<path fill-rule="evenodd" clip-rule="evenodd" d="M403.382 281.786C406.585 281.786 409.181 279.237 409.181 276.093C409.181 272.949 406.585 270.401 403.382 270.401C400.18 270.401 397.583 272.949 397.583 276.093C397.583 279.237 400.18 281.786 403.382 281.786Z" fill="#DDE3E9"/>
<path fill-rule="evenodd" clip-rule="evenodd" d="M403.382 278.533C404.755 278.533 405.867 277.441 405.867 276.093C405.867 274.746 404.755 273.654 403.382 273.654C402.009 273.654 400.897 274.746 400.897 276.093C400.897 277.441 402.009 278.533 403.382 278.533Z" fill="#F2F2F2"/>
<path fill-rule="evenodd" clip-rule="evenodd" d="M569.913 241.837C566.645 239.661 562.3 239.091 558.39 239.091C543.118 239.091 528.763 244.654 516.362 252.942C509.567 257.483 503.488 263.267 498.122 269.288C495.024 272.765 492.262 276.524 490.307 280.707C488.987 283.53 488.081 286.471 487.468 289.504C486.72 293.201 486.125 296.973 485.856 300.732C485.75 302.212 484.875 310.065 487.382 310.199C487.367 310.392 487.363 310.577 487.379 310.742C481.936 319.097 478.573 328.889 475.454 338.172C472.742 346.25 470.324 354.397 468.755 362.754C466.688 373.756 465.331 384.925 464.686 396.086C464.547 398.485 464.452 400.884 464.37 403.286C464.3 405.334 464.23 407.383 464.161 409.432C464.085 411.728 463.673 414.371 464.045 416.653C464.369 418.641 466.121 418.34 466.199 416.362C466.293 413.973 466.277 411.58 466.384 409.19C466.525 406.018 466.671 402.845 466.829 399.673C467.93 377.641 472.06 355.933 479.682 335.121C482.767 326.699 486.3 318.727 490.843 310.936C494.837 304.087 499.641 297.455 504.552 291.279C509.324 285.276 514.287 279.414 520.135 274.329C524.881 270.202 530.101 266.607 535.467 263.262C542.282 259.014 549.085 254.869 556.467 251.608C560.305 249.913 564.215 248.395 568.083 246.768C568.779 246.476 569.524 246.192 570.194 245.853C572.426 244.723 571.691 243.021 569.913 241.837Z" fill="#C1DEE2"/>
<path fill-rule="evenodd" clip-rule="evenodd" d="M508.473 318.788C514.667 318.788 520.179 319.579 525.886 321.995C530.812 324.081 535.302 326.842 539.661 329.847C545.792 334.075 550.621 338.995 554.002 345.515C556.022 349.41 557.503 354.921 556.147 359.169C554.549 364.172 550.162 368.346 544.384 367.464C540.812 366.92 537.537 364.598 534.822 362.413C531.573 359.798 528.972 356.655 526.825 353.164C523.323 347.469 521.265 341.031 518.29 335.08C516.878 332.255 515.514 329.412 513.822 326.727C512.986 325.398 512.094 324.082 510.824 323.093C510.145 322.565 507.281 321.651 508.376 320.464C492.313 320.671 478.084 332.782 475 347.773C474.713 349.17 474.488 350.578 474.251 351.984C474.102 352.872 474.162 356.146 473.354 356.713C471.571 357.963 472.32 354.163 472.397 353.616C472.595 352.202 472.805 350.789 473.026 349.378C474.231 341.706 477.71 334.574 483.512 329.102C490.146 322.846 499.099 318.788 508.473 318.788Z" fill="#89C5CC"/>
<path fill-rule="evenodd" clip-rule="evenodd" d="M62.0768 299.869C77.5397 325.336 95.5492 349.995 106.364 377.84C105.929 374.557 105.467 371.279 104.949 368.005C102.205 350.65 98.7939 333.422 95.2104 316.214C93.3855 307.453 91.4545 298.723 89.4747 289.995C88.4102 285.307 87.3582 280.616 86.2713 275.932C86.0079 274.797 85.7818 272.815 85.4529 270.807C95.9634 304.668 106.099 338.554 113.513 373.228C114.486 377.779 115.314 382.321 115.993 386.856C116.225 385.822 116.453 384.787 116.703 383.755C119.703 371.388 124.203 359.12 129.561 347.556C132.122 342.026 135.064 336.618 138.528 331.577C140.688 328.436 145.783 324.701 147.753 321.483C136.976 340.889 133.085 365.169 126.862 386.265C125.343 391.413 123.815 396.553 122.317 401.702C131.701 383.227 146.261 368.047 166.504 361.469C142.001 377.363 127.303 405.198 117.399 433.666C117.367 434.003 117.328 434.341 117.294 434.679C120.209 429.249 123.88 424.337 128.855 420.898C139.505 413.533 151.317 415.679 161.647 421.996C153.54 416.937 138.888 421.544 132.067 426.686C127.183 430.367 123.01 435.305 119.386 440.123C118.518 441.278 117.332 442.625 116.081 444.062C114.326 455.245 111.466 466.351 107.417 477.369C108.086 474.206 107.603 469.149 107.788 466.791C107.808 466.536 107.825 466.281 107.845 466.027C107.229 468.439 106.635 470.823 106.062 473.17C107.2 468.693 107.818 464.018 108.301 459.296C108.426 457.267 108.547 455.237 108.675 453.208C108.634 449.356 108.473 445.49 108.199 441.616C107.231 437.852 106.146 434.302 105.25 431.349C102.022 420.695 97.288 410.489 91.462 400.966C86.1463 392.277 79.783 384.407 72.4373 377.288C68.4772 373.451 64.3329 369.798 60.2469 366.094C58.7694 364.755 56.1285 361.462 53.8445 359.745C70.4787 368.749 87.6001 378.488 99.735 392.994C98.3118 387.631 96.7669 382.343 95.1325 377.162C86.8396 350.874 76.3692 323.629 62.0768 299.869Z" fill="#DDE3E9"/>
<path fill-rule="evenodd" clip-rule="evenodd" d="M78.696 444.026C78.696 473.221 81.051 496.887 112.66 496.887C144.268 496.887 146.623 473.221 146.623 444.026" fill="#C5CFD6"/>
<path d="M435.727 70.7515C435.727 69.4041 434.615 68.3118 433.242 68.3118C431.869 68.3118 430.757 69.4041 430.757 70.7515V86.2029C430.757 87.5504 431.869 88.6426 433.242 88.6426C434.615 88.6426 435.727 87.5504 435.727 86.2029V70.7515Z" fill="#DDE3E9"/>
<path d="M447.324 57.7398C447.324 56.3923 446.212 55.3 444.839 55.3C443.467 55.3 442.354 56.3923 442.354 57.7398V86.203C442.354 87.5504 443.467 88.6427 444.839 88.6427C446.212 88.6427 447.324 87.5504 447.324 86.203V57.7398Z" fill="#DDE3E9"/>
<path d="M458.922 51.2338C458.922 49.8864 457.809 48.7941 456.437 48.7941C455.064 48.7941 453.951 49.8864 453.951 51.2338V86.2029C453.951 87.5503 455.064 88.6426 456.437 88.6426C457.809 88.6426 458.922 87.5503 458.922 86.2029V51.2338Z" fill="#DDE3E9"/>
<path d="M470.519 57.7398C470.519 56.3923 469.406 55.3 468.034 55.3C466.661 55.3 465.549 56.3923 465.549 57.7398V86.203C465.549 87.5504 466.661 88.6427 468.034 88.6427C469.406 88.6427 470.519 87.5504 470.519 86.203V57.7398Z" fill="#DDE3E9"/>
<path d="M482.116 44.7279C482.116 43.3805 481.004 42.2882 479.631 42.2882C478.259 42.2882 477.146 43.3805 477.146 44.7279V86.2029C477.146 87.5503 478.259 88.6426 479.631 88.6426C481.004 88.6426 482.116 87.5503 482.116 86.2029V44.7279Z" fill="#C5CFD6"/>
<path fill-rule="evenodd" clip-rule="evenodd" d="M23.1946 291.346C23.1946 282.288 30.6516 274.874 39.7621 274.874V291.346L28.4399 303.337C25.2191 300.405 23.1946 296.105 23.1946 291.346Z" fill="#F2F2F2"/>
<path fill-rule="evenodd" clip-rule="evenodd" d="M39.3238 291.138H56.0548C56.0548 295.384 54.2905 299.362 51.5014 302.253C48.4338 305.415 44.0653 307.403 39.3238 307.403C34.9562 307.403 30.9583 305.688 27.8899 302.976L39.3238 291.138Z" fill="#AFB9C5"/>
<path fill-rule="evenodd" clip-rule="evenodd" d="M56.3297 291.138C56.3297 282.194 48.8727 274.874 39.7622 274.874V291.138H56.3297ZM31.4784 274.874L38.1054 289.512L23.1946 283.006C24.6691 279.211 27.9801 276.321 31.4784 274.874Z" fill="#C5CFD6"/>
<path fill-rule="evenodd" clip-rule="evenodd" d="M562.275 298.603C560.684 300.262 558.429 301.304 555.921 301.304C551.102 301.304 547.195 297.481 547.195 292.765C547.195 288.049 551.102 284.226 555.921 284.226V268.368C542.212 268.368 530.99 279.349 530.99 292.765C530.99 306.181 542.212 317.162 555.921 317.162C563.122 317.162 569.63 314.18 574.066 309.438L562.275 298.603Z" fill="#F2F2F2"/>
<path fill-rule="evenodd" clip-rule="evenodd" d="M555.842 268.368V284.226C560.646 284.226 564.54 288.049 564.54 292.765H580.693C580.693 279.349 569.508 268.368 555.842 268.368Z" fill="#AFB9C5"/>
<path fill-rule="evenodd" clip-rule="evenodd" d="M564.206 292.765C564.206 295.535 562.876 297.998 560.812 299.589L570.97 312.282C576.882 307.738 580.693 300.693 580.693 292.765H564.206Z" fill="#C5CFD6"/>
<path fill-rule="evenodd" clip-rule="evenodd" d="M404.291 74.4143C403.066 75.6862 401.332 76.4848 399.403 76.4848C395.696 76.4848 392.691 73.5539 392.691 69.9383C392.691 66.3227 395.696 63.3918 399.403 63.3918V51.2339C388.857 51.2339 380.226 59.6527 380.226 69.9383C380.226 80.2239 388.857 88.6427 399.403 88.6427C404.942 88.6427 409.948 86.3567 413.361 82.7207L404.291 74.4143Z" fill="#F2F2F2"/>
<path fill-rule="evenodd" clip-rule="evenodd" d="M399.278 51.2339V63.3917C402.961 63.3917 405.947 66.3227 405.947 69.9383H418.331C418.331 59.6527 409.756 51.2339 399.278 51.2339Z" fill="#AFB9C5"/>
<path fill-rule="evenodd" clip-rule="evenodd" d="M405.966 69.9382C405.966 72.0162 404.969 73.8634 403.42 75.056L411.038 84.5765C415.473 81.168 418.331 75.8846 418.331 69.9382H405.966Z" fill="#C5CFD6"/>
<path fill-rule="evenodd" clip-rule="evenodd" d="M102.725 88.6314C102.722 88.6396 102.718 88.6479 102.713 88.6578C102.718 88.6495 102.725 88.6165 102.725 88.6314Z" fill="#C5CFD6"/>
<path fill-rule="evenodd" clip-rule="evenodd" d="M102.717 88.6437C102.717 88.6453 102.716 88.6486 102.716 88.6519C102.716 88.6437 102.731 88.6189 102.717 88.6437Z" fill="#C5CFD6"/>
<path fill-rule="evenodd" clip-rule="evenodd" d="M102.774 88.506C102.763 88.5385 102.748 88.5694 102.735 88.6019C102.741 88.5857 102.748 88.5727 102.754 88.5564C102.582 88.9793 102.691 88.7044 102.774 88.506Z" fill="#C5CFD6"/>
<path fill-rule="evenodd" clip-rule="evenodd" d="M102.737 88.6044C102.73 88.619 102.724 88.6353 102.717 88.6499C102.669 88.741 102.737 88.6044 102.737 88.6044Z" fill="#C5CFD6"/>
<path fill-rule="evenodd" clip-rule="evenodd" d="M102.718 88.645C102.718 88.643 102.718 88.643 102.72 88.641C102.718 88.643 102.718 88.643 102.718 88.645Z" fill="#C5CFD6"/>
<path fill-rule="evenodd" clip-rule="evenodd" d="M102.711 88.6561C102.701 88.6759 102.758 88.5801 102.711 88.6561V88.6561Z" fill="#C5CFD6"/>
<path fill-rule="evenodd" clip-rule="evenodd" d="M102.717 88.645L102.721 88.641C102.719 88.643 102.719 88.645 102.717 88.645Z" fill="#C5CFD6"/>
<path d="M138.339 46.3544H66.2703C64.4403 46.3544 62.9568 47.8108 62.9568 49.6073V94.3353C62.9568 96.1318 64.4403 97.5882 66.2703 97.5882H138.339C140.169 97.5882 141.653 96.1318 141.653 94.3353V49.6073C141.653 47.8108 140.169 46.3544 138.339 46.3544Z" fill="#DDE3E9"/>
<path fill-rule="evenodd" clip-rule="evenodd" d="M92.7783 60.9927L69.5837 97.5883H115.973L92.7783 60.9927Z" fill="#AFB9C5"/>
<path fill-rule="evenodd" clip-rule="evenodd" d="M115.559 70.7515L95.2634 97.5882H135.854L115.559 70.7515Z" fill="#C5CFD6"/>
<path fill-rule="evenodd" clip-rule="evenodd" d="M124.257 70.7515C128.375 70.7515 131.712 67.4747 131.712 63.4324C131.712 59.3901 128.375 56.1133 124.257 56.1133C120.139 56.1133 116.801 59.3901 116.801 63.4324C116.801 67.4747 120.139 70.7515 124.257 70.7515Z" fill="white"/>
<path fill-rule="evenodd" clip-rule="evenodd" d="M497.85 435.883C497.853 435.891 497.856 435.899 497.861 435.909C497.856 435.901 497.85 435.868 497.85 435.883Z" fill="#C5CFD6"/>
<path fill-rule="evenodd" clip-rule="evenodd" d="M497.857 435.895C497.857 435.897 497.859 435.9 497.859 435.903C497.859 435.895 497.844 435.87 497.857 435.895Z" fill="#C5CFD6"/>
<path fill-rule="evenodd" clip-rule="evenodd" d="M497.8 435.757C497.811 435.79 497.826 435.821 497.84 435.853C497.833 435.837 497.826 435.824 497.82 435.808C497.992 436.231 497.883 435.956 497.8 435.757Z" fill="#C5CFD6"/>
<path fill-rule="evenodd" clip-rule="evenodd" d="M497.837 435.856C497.844 435.871 497.85 435.887 497.857 435.901C497.905 435.993 497.837 435.856 497.837 435.856Z" fill="#C5CFD6"/>
<path fill-rule="evenodd" clip-rule="evenodd" d="M497.856 435.896C497.856 435.894 497.856 435.894 497.854 435.892C497.856 435.894 497.856 435.894 497.856 435.896Z" fill="#C5CFD6"/>
<path fill-rule="evenodd" clip-rule="evenodd" d="M497.864 435.908C497.874 435.927 497.817 435.832 497.864 435.908V435.908Z" fill="#C5CFD6"/>
<path fill-rule="evenodd" clip-rule="evenodd" d="M497.858 435.896L497.854 435.892C497.856 435.894 497.856 435.896 497.858 435.896Z" fill="#C5CFD6"/>
<path d="M442.354 373.275H553.357C555.187 373.275 556.67 374.731 556.67 376.528V446.466C556.67 448.263 555.187 449.719 553.357 449.719H442.354C440.524 449.719 439.041 448.263 439.041 446.466V376.528C439.041 374.731 440.524 373.275 442.354 373.275Z" fill="#DDE3E9"/>
<path fill-rule="evenodd" clip-rule="evenodd" d="M512.993 395.232L547.002 449.719H478.984L512.993 395.232Z" fill="#AFB9C5"/>
<path fill-rule="evenodd" clip-rule="evenodd" d="M477.928 409.828L507.994 449.719H447.862L477.928 409.828Z" fill="#C5CFD6"/>
<path fill-rule="evenodd" clip-rule="evenodd" d="M465.135 409.871C458.958 409.871 453.951 404.955 453.951 398.892C453.951 392.828 458.958 387.913 465.135 387.913C471.311 387.913 476.318 392.828 476.318 398.892C476.318 404.955 471.311 409.871 465.135 409.871Z" fill="white"/>
<path fill-rule="evenodd" clip-rule="evenodd" d="M483.389 270.677C477.144 274.431 471.008 276.245 468.127 275.505C460.904 273.648 460.24 247.298 465.829 236.911C471.418 226.523 500.148 221.995 501.596 242.577C502.099 249.72 499.091 256.095 494.647 261.297L502.615 298.333H479.469L483.389 270.677Z" fill="#B28B67"/>
<path fill-rule="evenodd" clip-rule="evenodd" d="M511.688 235.726C512.435 234.987 512.843 233.932 513.196 232.931C513.562 231.891 513.918 230.84 514.161 229.757C514.647 227.594 514.652 225.107 513.104 223.427C511.863 222.08 510.001 221.476 508.283 221.345C507.138 221.257 505.962 221.417 504.864 221.777C503.775 222.134 502.836 222.845 501.78 223.287C501.74 220.956 501.34 218.516 500.154 216.526C499.013 214.611 497.193 213.536 495.121 213.252C492.994 212.96 490.894 213.456 488.99 214.483C488.513 214.74 488.041 215.01 487.589 215.315C487.211 215.57 486.817 215.877 486.373 215.981C485.878 216.097 485.633 215.812 485.311 215.452C484.934 215.03 484.509 214.658 484.059 214.328C482.071 212.871 479.462 212.271 477.159 213.145C476.097 213.548 475.065 214.231 474.345 215.173C473.703 216.013 473.245 217.345 472.359 217.93C471.983 218.178 471.718 217.849 471.376 217.606C470.861 217.24 470.371 216.837 469.851 216.482C469.12 215.982 468.328 215.609 467.481 215.413C466.24 215.127 464.526 215.194 464.171 216.815C464.038 217.423 464.14 218.074 464.183 218.687C464.242 219.529 464.304 220.371 464.377 221.212C464.433 221.85 464.503 222.467 464.624 223.094C464.688 223.428 464.89 224.051 464.746 224.386C464.567 224.804 463.738 224.566 463.384 224.581C462.684 224.61 461.982 224.732 461.335 225.03C460.834 225.261 460.307 225.601 460.096 226.173C459.966 226.525 460 226.887 460.061 227.249C460.135 227.683 460.051 227.914 459.996 228.352C459.056 227.891 455.801 226.866 455.392 228.545C455.255 229.104 455.566 229.735 455.803 230.207C456.218 231.034 456.763 231.789 457.32 232.51C458.482 234.014 459.869 235.31 461.361 236.419C459.613 237.194 459.156 239.481 460.67 240.843C461.338 241.444 462.237 241.578 463.08 241.539C463.388 241.525 463.833 241.407 464.076 241.461C464.207 241.489 464.347 241.6 464.528 241.612C465.717 241.693 467.06 241.408 468.223 241.144C470.296 240.675 472.258 239.696 473.86 238.205C474.271 237.822 474.611 237.602 475.164 237.608C475.649 237.613 476.124 237.745 476.608 237.758C477.89 237.79 479.045 237.166 480.235 236.75C480.308 238.353 480.766 240.118 481.424 241.56C481.96 242.736 483.08 242.907 484.18 243.011C487.699 243.341 491.23 242.972 494.753 242.977C491.343 243.746 487.818 244.063 484.438 244.967C482.91 245.376 484.077 246.403 484.73 247.115C485.806 248.287 486.606 249.74 487.161 251.27C488.829 249.101 491.778 247.672 494.391 248.339C497.277 249.075 499.31 252.967 497.464 255.766C496.392 257.391 494.457 258.018 492.847 258.716C494.103 260.018 494.407 261.942 495.163 263.562C495.536 264.362 496.059 265.265 496.893 265.543C497.202 265.647 497.564 265.655 497.807 265.906C498.109 266.217 498.18 266.564 498.566 266.831C500.102 267.896 502.502 267.814 503.864 266.424C505.096 265.167 504.776 263.177 503.747 261.902C505.384 261.222 508.367 260.346 507.717 257.803C511.265 257.568 519.879 251.829 515.117 247.636C517.731 246.163 520.132 242.564 518.453 239.391C517.16 236.947 514.154 235.855 511.688 235.726" fill="#191847"/>
<path fill-rule="evenodd" clip-rule="evenodd" d="M544.45 418.549H469.943L460.181 537.804H571.09L544.45 418.549Z" fill="#C5CFD6"/>
<path fill-rule="evenodd" clip-rule="evenodd" d="M544.45 418.549H521.535L507.82 537.804H571.09L544.45 418.549Z" fill="black" fill-opacity="0.1"/>
<path fill-rule="evenodd" clip-rule="evenodd" d="M429.007 442.175C437.38 459.882 450.462 502.866 450.462 502.866L439.355 507.926C439.355 507.926 411.174 462.743 393.951 431.856C394.753 438.809 395.57 446.637 396.328 454.866C398.122 474.361 396.329 516.479 395.363 528.645C394.757 536.292 384.338 534.69 383.365 528.625C383.201 527.598 382.529 523.992 381.527 518.612C376.616 492.23 363.76 423.182 363.737 406.276C363.728 399.473 377.056 393.361 385 398.118C390.456 392.312 400.783 388.966 406.716 398.557C410.488 404.654 419.449 421.963 429.007 442.175Z" fill="#B28B67"/>
<path fill-rule="evenodd" clip-rule="evenodd" d="M449.668 486.952L411.547 396.898C402.414 382.248 376.809 399.879 379.923 408.376C386.994 427.666 422.954 490.115 425.06 495.863L449.668 486.952Z" fill="#1F28CF"/>
<path fill-rule="evenodd" clip-rule="evenodd" d="M448.886 497.651C449.58 496.711 450.922 496.488 451.818 497.241C453.391 498.564 455.612 500.568 456.42 501.964C457.724 504.216 459.474 508.972 459.474 508.972C456.853 510.481 412.366 536.094 412.366 536.094C412.366 536.094 407.025 531.097 410.701 528.337C414.378 525.576 416.77 523.681 416.77 523.681L433.008 501.371C433.339 500.916 433.981 500.824 434.428 501.167L437.777 503.738C437.777 503.738 442.426 503.334 444.716 502.015C446.091 501.224 447.767 499.168 448.886 497.651Z" fill="#E4E4E4"/>
<path fill-rule="evenodd" clip-rule="evenodd" d="M395.062 522.719C396.133 522.251 397.405 522.727 397.803 523.826C398.503 525.756 399.421 528.6 399.421 530.211C399.421 532.813 398.552 537.804 398.552 537.804C395.526 537.804 344.156 537.804 344.156 537.804C344.156 537.804 342.036 530.813 346.604 530.256C351.173 529.699 354.194 529.25 354.194 529.25L379.445 518.024C379.959 517.796 380.56 518.036 380.775 518.556L382.386 522.453C382.386 522.453 386.615 524.421 389.259 524.421C390.848 524.421 393.332 523.474 395.062 522.719Z" fill="#E4E4E4"/>
<path fill-rule="evenodd" clip-rule="evenodd" d="M361.065 413.195C361.065 438.745 373.234 498.344 373.241 503.97L399.421 503.99C399.421 503.99 393.673 424.221 395.345 423.362C397.017 422.502 463.869 430.018 483.919 430.018C512.831 430.018 524.791 411.837 525.762 378.156H468.488C456.826 379.401 395.999 391.635 373.409 395.841C363.737 397.642 361.065 406.157 361.065 413.195Z" fill="#2B44FF"/>
<path fill-rule="evenodd" clip-rule="evenodd" d="M426.09 299.958L459.565 318.241L447.203 331.472L422.879 309.263C410.066 305.742 404.206 303.165 405.3 301.535C406.222 300.16 407.71 300.208 409.08 300.251C410.148 300.286 411.144 300.318 411.746 299.673C413.122 298.201 410.498 293.053 407.798 288.275C405.098 283.496 407.985 283.912 409.636 284.599C415.038 288.246 420.523 293.366 426.09 299.958ZM392.433 325.612L407.137 333.667L406.299 348.381C406.299 348.381 396.776 341.527 388.583 339.249C378.136 336.344 373.909 334.126 368.804 327.64C366.073 324.169 363.754 317.192 366.354 314.92C367.352 314.049 371.068 316.108 374.859 318.209C377.749 319.81 380.682 321.435 382.489 321.806C384.922 322.306 384.637 319.161 384.41 316.649C384.246 314.845 384.113 313.367 385.034 313.795C389.338 313.868 392.433 325.612 392.433 325.612Z" fill="#997659"/>
<path fill-rule="evenodd" clip-rule="evenodd" d="M475.868 314.168C464.143 314.044 448.507 311.575 431.824 301.015L425.272 315.585C436.78 326.973 452.961 336.33 467.109 335.934C478.259 335.622 483.957 322.173 475.868 314.168Z" fill="#2026A2"/>
<path fill-rule="evenodd" clip-rule="evenodd" d="M507.491 413.989C518.638 412.54 528.88 411.208 534.95 412.4C541.76 390.344 536.105 376.458 530.885 363.639C527.739 355.913 524.75 348.574 524.744 340.069C524.725 315.3 504.781 277.175 501.847 277.175H501.004H477.749H475.087C473.891 292.502 468.784 309.097 463.645 325.799C462.445 329.7 461.243 333.606 460.089 337.503C440.641 341.905 397.458 326.582 397.458 326.582C397.458 326.582 386.556 349.072 387.379 358.65C412.514 371.743 434.057 377.58 451.806 377.965C451.242 388.467 452.524 398.46 456.83 407.591C462.6 419.825 486.629 416.701 507.491 413.989Z" fill="#1F28CF"/>
<path fill-rule="evenodd" clip-rule="evenodd" d="M173.239 188.088C179.746 191.998 186.14 193.887 189.141 193.115C196.667 191.182 197.359 163.738 191.536 152.919C185.713 142.1 155.777 137.385 154.268 158.821C153.744 166.26 156.878 172.9 161.509 178.318L153.206 216.891H177.323L173.239 188.088Z" fill="#B28B67"/>
<path fill-rule="evenodd" clip-rule="evenodd" d="M174.444 161.188C176.531 158.092 178.533 155.73 181.139 154.359C191.741 154.526 192.982 152.631 192.982 146.245C191.27 145.024 185.228 142.967 178.461 142.389C175.009 141.404 170.919 141.589 166.98 143.232C162.117 144.607 158 147.569 156.181 153.114C149.6 164.433 154.595 176.217 161.326 180.242C163.117 178.126 164.681 176.076 166.076 174.113C164.955 173.021 164.26 171.498 164.26 169.813C164.26 166.494 166.959 163.803 170.289 163.803C170.534 163.803 170.775 163.818 171.012 163.846C171.162 167.996 171.779 182.036 173.398 186.913C175.308 192.663 186.451 194.075 190.338 194.075C193.694 194.075 193.58 190.906 193.498 188.635C193.486 188.308 193.475 188 193.475 187.722C193.475 187.142 192.718 187.144 191.863 187.145C190.752 187.148 189.476 187.15 189.476 185.88C189.476 184.496 191.396 183.434 193.113 182.483C194.185 181.891 195.178 181.341 195.577 180.784C196.837 179.026 197.261 176.656 195.36 176.656C194.322 176.656 192.896 177.253 191.182 177.971C188.593 179.055 185.345 180.416 181.771 180.416C175.866 180.416 174.462 161.426 174.444 161.188Z" fill="#191847"/>
<path fill-rule="evenodd" clip-rule="evenodd" d="M151.196 300.029L200.518 424.462L233.598 529.659H246.66L196.088 300.029L151.196 300.029Z" fill="#997659"/>
<path fill-rule="evenodd" clip-rule="evenodd" d="M141.265 300.029C140.74 343.755 133.08 402.626 131.856 405.352C130.633 408.077 47.3674 474.676 47.3674 474.676L56.3644 484.273C56.3644 484.273 154.61 427.173 159.156 419.557C163.702 411.942 178.504 341.861 190.387 300.029H141.265Z" fill="#B28B67"/>
<path fill-rule="evenodd" clip-rule="evenodd" d="M48.8132 472.873C48.485 471.75 47.2983 471.082 46.1966 471.483C44.1806 472.217 41.2274 473.407 39.9197 474.501C37.8375 476.242 34.4249 480.275 34.4249 480.275C36.4518 482.683 70.8564 523.553 70.8564 523.553C70.8564 523.553 77.8715 520.56 75.258 516.552C72.6445 512.545 70.9803 509.84 70.9803 509.84L63.0429 482.198C62.8875 481.657 62.3147 481.35 61.7768 481.52L57.5387 482.86C57.5387 482.86 53.1314 480.813 51.3606 478.709C50.2815 477.427 49.3647 474.761 48.8132 472.873Z" fill="#E4E4E4"/>
<path fill-rule="evenodd" clip-rule="evenodd" d="M231.021 523.677C229.95 523.207 228.679 523.684 228.28 524.782C227.548 526.793 226.563 529.815 226.563 531.518C226.563 534.227 227.468 539.425 227.468 539.425C230.622 539.425 284.146 539.425 284.146 539.425C284.146 539.425 286.355 532.145 281.595 531.564C276.835 530.984 273.687 530.516 273.687 530.516L247.337 518.807C246.823 518.579 246.222 518.819 246.007 519.339L244.312 523.437C244.312 523.437 239.906 525.487 237.151 525.487C235.47 525.487 232.826 524.47 231.021 523.677Z" fill="#E4E4E4"/>
<path fill-rule="evenodd" clip-rule="evenodd" d="M184.358 518.824L246.464 512.105L200.436 300.029H144.809L184.358 518.824Z" fill="#69A1AC"/>
<path fill-rule="evenodd" clip-rule="evenodd" d="M60.2141 459.193L100.952 507.258C100.952 507.258 165.315 437.188 176 415.816C186.684 394.445 195.209 300.029 195.209 300.029H132.584C132.584 300.029 127.927 383.092 126.306 386.957C124.685 390.823 60.2141 459.193 60.2141 459.193Z" fill="#89C5CC"/>
<path fill-rule="evenodd" clip-rule="evenodd" d="M82.2591 345.012C85.2039 339.057 99.9168 262.416 99.9168 262.416L121.921 262.499C121.921 262.499 96.7823 343.684 95.2322 347.513C93.2184 352.487 96.639 359.715 98.9584 364.616C99.3173 365.374 99.6497 366.076 99.9317 366.706C96.7133 368.142 95.1674 366.407 93.5375 364.577C91.6966 362.511 89.7487 360.325 85.1632 362.452C83.3916 363.273 81.7152 364.245 80.0773 365.194C74.4199 368.471 69.2226 371.483 62.1524 367.134C61.0316 366.445 59.8033 363.849 62.771 361.821C70.1647 356.767 80.8195 347.923 82.2591 345.012ZM267.583 315.149L239.117 287.468L229.662 303.775L259.263 321.171C266.686 332.826 271.045 337.861 272.341 336.278C273.434 334.943 272.933 333.48 272.472 332.133C272.112 331.083 271.777 330.103 272.237 329.309C273.289 327.494 279.232 328.533 284.83 329.76C290.427 330.986 289.132 328.245 287.943 326.815C282.652 322.559 275.866 318.671 267.583 315.149Z" fill="#B28B67"/>
<path fill-rule="evenodd" clip-rule="evenodd" d="M166.968 200.196L175.657 198.71C189.346 246.942 259.676 279.818 263.994 297.849C265.577 304.461 260.803 307.803 263.269 309.817L251.975 318.059C250.062 315.834 245.98 319.903 237.457 317.057C228.933 314.211 166.968 257.306 166.968 200.196Z" fill="#DB2721"/>
<path fill-rule="evenodd" clip-rule="evenodd" d="M151.494 190.125C149.29 189.971 147.378 191.633 147.224 193.837L146.812 199.711C130.459 212.255 89.928 249.739 79.3663 319.518C78.2569 326.848 80.2632 330.774 81.8664 333.911C82.963 336.057 83.8709 337.834 83.4637 340.078L98.2452 344.145C98.2452 342.488 100.108 341.227 102.512 339.601C106.006 337.236 110.644 334.098 112.359 327.842C113.984 321.913 116.364 314.507 119.208 306.268C119.476 317.18 121.552 327.214 126.074 335.525C137.356 356.261 202.555 333.521 209.366 312.367C213.001 301.08 207.844 291.603 201.022 279.07C192.364 263.16 181.024 242.325 181.585 206.608L182.309 196.282C182.464 194.078 180.803 192.167 178.599 192.014L151.494 190.125Z" fill="#FF4133"/>
</svg>
