<svg width="352" height="70" viewBox="0 0 352 70" fill="none" xmlns="http://www.w3.org/2000/svg">
<path d="M31.2991 47.541L32.4602 44.6582H42.3098L43.4709 47.541H31.2991ZM29.0569 53.3066L30.178 50.4238H44.552L45.7932 53.3066H29.0569ZM26.8147 59.0723L27.9358 56.1895H46.8342L48.0354 59.0723H26.8147ZM3.39185 67H0.268799L26.4944 0.695312H29.6174L55.803 67H52.72L28.0559 4.5791L3.39185 67ZM28.4163 11.4258L30.0579 15.1094L9.55786 67H6.47485L28.4163 11.4258ZM31.6194 19.0332L33.1409 22.9971L15.804 67H12.6809L31.6194 19.0332ZM34.6624 26.9609L36.1838 31.0049L21.97 67H18.887L34.6624 26.9609ZM74.4211 67H71.2981L45.1125 0.695312H48.1956L74.4211 67ZM41.9895 0.695312L68.2151 67H65.1321L38.9065 0.695312H41.9895ZM35.7834 0.695312L62.009 67H58.886L32.7004 0.695312H35.7834Z" fill="url(#paint0_linear)"/>
<path d="M72.4592 9.34375H75.5823L96.843 63.1162L118.104 9.34375H121.187L98.4045 67H95.2815L72.4592 9.34375ZM78.6653 9.34375H81.7483L98.845 52.5859L97.2034 56.2695L78.6653 9.34375ZM84.8713 9.34375H87.9944L101.928 44.6982L100.406 48.6621L84.8713 9.34375ZM91.0774 9.34375H94.1604L104.971 36.6904L103.449 40.7344L91.0774 9.34375ZM136.682 9.34375H139.805L116.983 67H113.9L136.682 9.34375ZM130.516 9.34375H133.599L110.777 67H107.694L130.516 9.34375ZM124.27 9.34375H127.393L104.571 67H101.488L124.27 9.34375Z" fill="url(#paint1_linear)"/>
<path d="M162.187 9.34375H165.07V67H162.187V9.34375ZM156.421 9.34375H159.304V67H156.421V9.34375ZM150.656 9.34375H153.538V67H150.656V9.34375ZM144.89 9.34375H147.773V67H144.89V9.34375Z" fill="url(#paint2_linear)"/>
<path d="M213.517 38.5723C213.517 35.1556 212.462 32.513 210.354 30.6445C208.245 28.776 205.456 27.8418 201.986 27.8418C199.049 27.8418 196.527 28.8561 194.418 30.8848C192.309 32.9134 191.255 35.3424 191.255 38.1719C191.255 39.7734 191.469 41.2148 191.896 42.4961C192.323 43.7507 192.897 44.805 193.617 45.6592C194.365 46.4867 195.246 47.1807 196.26 47.7412C197.274 48.2751 198.329 48.6621 199.423 48.9023C200.544 49.1426 201.732 49.2627 202.987 49.2627C206.03 49.2627 208.806 48.5153 211.315 47.0205V49.9033C208.726 51.2646 205.936 51.9453 202.947 51.9453C201.025 51.9453 199.21 51.6917 197.501 51.1846C195.82 50.6507 194.285 49.8633 192.897 48.8223C191.509 47.7546 190.401 46.3132 189.573 44.498C188.773 42.6562 188.372 40.5475 188.372 38.1719C188.372 34.4883 189.667 31.3652 192.256 28.8027C194.845 26.2402 198.088 24.959 201.986 24.959C206.283 24.959 209.753 26.1735 212.396 28.6025C215.065 31.0049 216.4 34.3281 216.4 38.5723V67H213.517V38.5723ZM222.165 38.5723V67H219.282V38.5723C219.282 33.5273 217.668 29.5234 214.438 26.5605C211.208 23.571 207.057 22.0762 201.986 22.0762C197.288 22.0762 193.364 23.6377 190.214 26.7607C187.064 29.8838 185.49 33.6875 185.49 38.1719C185.49 40.8945 185.957 43.3369 186.891 45.499C187.852 47.6611 189.146 49.3962 190.775 50.7041C192.403 52.012 194.218 53.013 196.22 53.707C198.249 54.3743 200.384 54.708 202.626 54.708C205.669 54.708 208.565 54.0007 211.315 52.5859V55.6289C208.432 56.8301 205.522 57.4307 202.586 57.4307C199.944 57.4307 197.434 57.0303 195.059 56.2295C192.683 55.402 190.561 54.2142 188.693 52.666C186.824 51.0911 185.343 49.0625 184.248 46.5801C183.154 44.071 182.607 41.2682 182.607 38.1719C182.607 32.9134 184.462 28.4424 188.172 24.7588C191.909 21.0485 196.514 19.1934 201.986 19.1934C205.829 19.1934 209.273 19.9808 212.316 21.5557C215.359 23.1038 217.761 25.3594 219.523 28.3223C221.284 31.2852 222.165 34.7018 222.165 38.5723ZM227.931 38.5723V67H225.048V38.5723C225.048 34.168 224.034 30.2708 222.005 26.8809C220.003 23.4642 217.254 20.8483 213.757 19.0332C210.26 17.2181 206.337 16.3105 201.986 16.3105C197.848 16.3105 194.071 17.2982 190.655 19.2734C187.238 21.222 184.555 23.8646 182.607 27.2012C180.685 30.5378 179.724 34.1947 179.724 38.1719C179.724 41.5885 180.351 44.7116 181.606 47.541C182.86 50.3438 184.542 52.6527 186.651 54.4678C188.786 56.2829 191.202 57.6976 193.898 58.7119C196.62 59.6995 199.463 60.1934 202.426 60.1934C205.442 60.1934 208.405 59.5661 211.315 58.3115V61.2344C208.272 62.3822 205.282 62.9561 202.346 62.9561C197.728 62.9561 193.484 61.915 189.614 59.833C185.743 57.751 182.647 54.8014 180.324 50.9844C178.002 47.1673 176.841 42.8965 176.841 38.1719C176.841 34.8086 177.482 31.6055 178.763 28.5625C180.071 25.5195 181.833 22.8903 184.048 20.6748C186.264 18.4593 188.933 16.6976 192.056 15.3896C195.179 14.0817 198.489 13.4277 201.986 13.4277C206.87 13.4277 211.275 14.4688 215.198 16.5508C219.149 18.6328 222.259 21.5957 224.528 25.4395C226.796 29.2832 227.931 33.6608 227.931 38.5723ZM233.697 38.5723V67H230.814V38.5723C230.814 33.127 229.546 28.2689 227.01 23.998C224.474 19.7005 221.017 16.3906 216.64 14.0684C212.262 11.7194 207.378 10.5449 201.986 10.5449C196.807 10.5449 192.069 11.7861 187.772 14.2686C183.474 16.751 180.098 20.1143 177.642 24.3584C175.186 28.5758 173.958 33.1803 173.958 38.1719C173.958 41.4551 174.479 44.5781 175.52 47.541C176.587 50.4772 178.029 53.0531 179.844 55.2686C181.686 57.4574 183.795 59.3525 186.17 60.9541C188.573 62.5557 191.148 63.7702 193.898 64.5977C196.674 65.4251 199.49 65.8389 202.346 65.8389C205.496 65.8389 208.485 65.2383 211.315 64.0371V67C208.352 68.041 205.309 68.5615 202.186 68.5615C198.956 68.5615 195.806 68.1077 192.737 67.2002C189.694 66.2926 186.864 64.958 184.248 63.1963C181.659 61.4079 179.377 59.3125 177.402 56.9102C175.426 54.4811 173.878 51.6517 172.757 48.4219C171.636 45.1921 171.075 41.7754 171.075 38.1719C171.075 34.0345 171.85 30.0973 173.398 26.3604C174.973 22.5967 177.108 19.3535 179.804 16.6309C182.527 13.8815 185.81 11.7061 189.654 10.1045C193.524 8.47624 197.635 7.66211 201.986 7.66211C206.417 7.66211 210.581 8.40951 214.478 9.9043C218.375 11.3991 221.738 13.4811 224.568 16.1504C227.397 18.793 229.626 22.0495 231.254 25.9199C232.882 29.7904 233.697 34.0078 233.697 38.5723Z" fill="url(#paint3_linear)"/>
<path d="M251.033 25.3193H253.916V67H251.033V25.3193ZM239.502 12.2266V9.34375H282.744V12.2266H239.502ZM239.502 17.9922V15.1094H282.744V17.9922H239.502ZM239.502 23.7578V20.875H282.744V23.7578H239.502ZM268.33 25.3193H271.213V67H268.33V25.3193ZM262.565 25.3193H265.448V67H262.565V25.3193ZM256.799 25.3193H259.682V67H256.799V25.3193Z" fill="url(#paint4_linear)"/>
<path d="M311.132 30.0439C308.89 32.2861 307.769 34.9954 307.769 38.1719C307.769 41.3483 308.89 44.071 311.132 46.3398C313.401 48.582 316.124 49.7031 319.3 49.7031C322.476 49.7031 325.186 48.582 327.428 46.3398C329.697 44.071 330.831 41.3483 330.831 38.1719C330.831 34.9954 329.697 32.2861 327.428 30.0439C325.186 27.7751 322.476 26.6406 319.3 26.6406C316.124 26.6406 313.401 27.7751 311.132 30.0439ZM309.09 48.3818C306.287 45.5524 304.886 42.1491 304.886 38.1719C304.886 34.1947 306.287 30.8047 309.09 28.002C311.92 25.1725 315.323 23.7578 319.3 23.7578C323.277 23.7578 326.667 25.1725 329.47 28.002C332.299 30.8047 333.714 34.1947 333.714 38.1719C333.714 42.1491 332.299 45.5524 329.47 48.3818C326.667 51.1846 323.277 52.5859 319.3 52.5859C315.323 52.5859 311.92 51.1846 309.09 48.3818ZM307.048 25.96C303.685 29.3499 302.003 33.4206 302.003 38.1719C302.003 42.9232 303.685 46.9938 307.048 50.3838C310.438 53.7738 314.522 55.4688 319.3 55.4688C324.078 55.4688 328.149 53.7738 331.512 50.3838C334.902 46.9938 336.597 42.9232 336.597 38.1719C336.597 33.4206 334.902 29.3499 331.512 25.96C328.149 22.57 324.078 20.875 319.3 20.875C314.522 20.875 310.438 22.57 307.048 25.96ZM301.803 48.3018C300.015 45.2054 299.12 41.8288 299.12 38.1719C299.12 34.515 300.015 31.1383 301.803 28.042C303.618 24.9456 306.074 22.5033 309.17 20.7148C312.267 18.8997 315.643 17.9922 319.3 17.9922C322.957 17.9922 326.334 18.8997 329.43 20.7148C332.526 22.5033 334.969 24.9456 336.757 28.042C338.572 31.1383 339.48 34.515 339.48 38.1719C339.48 41.8288 338.572 45.2054 336.757 48.3018C334.969 51.3981 332.526 53.8538 329.43 55.6689C326.334 57.4574 322.957 58.3516 319.3 58.3516C315.643 58.3516 312.267 57.4574 309.17 55.6689C306.074 53.8538 303.618 51.3981 301.803 48.3018ZM298.039 29.2432C296.838 32.0726 296.238 35.0488 296.238 38.1719C296.238 41.2949 296.838 44.2845 298.039 47.1406C299.267 49.9701 300.909 52.4258 302.964 54.5078C305.046 56.5632 307.502 58.2048 310.331 59.4326C313.187 60.6338 316.177 61.2344 319.3 61.2344C322.423 61.2344 325.399 60.6338 328.229 59.4326C331.085 58.2048 333.541 56.5632 335.596 54.5078C337.678 52.4258 339.32 49.9701 340.521 47.1406C341.749 44.2845 342.363 41.2949 342.363 38.1719C342.363 35.0488 341.749 32.0726 340.521 29.2432C339.32 26.387 337.678 23.9313 335.596 21.876C333.541 19.7939 331.085 18.1523 328.229 16.9512C325.399 15.7233 322.423 15.1094 319.3 15.1094C316.177 15.1094 313.187 15.7233 310.331 16.9512C307.502 18.1523 305.046 19.7939 302.964 21.876C300.909 23.9313 299.267 26.387 298.039 29.2432ZM295.397 48.2617C294.035 45.0586 293.355 41.6953 293.355 38.1719C293.355 34.6484 294.035 31.2852 295.397 28.082C296.785 24.8789 298.627 22.1296 300.922 19.834C303.244 17.5117 306.007 15.6699 309.21 14.3086C312.413 12.9206 315.777 12.2266 319.3 12.2266C322.823 12.2266 326.187 12.9206 329.39 14.3086C332.593 15.6699 335.342 17.5117 337.638 19.834C339.96 22.1296 341.802 24.8789 343.163 28.082C344.551 31.2852 345.245 34.6484 345.245 38.1719C345.245 41.6953 344.551 45.0586 343.163 48.2617C341.802 51.4648 339.96 54.2275 337.638 56.5498C335.342 58.8454 332.593 60.6872 329.39 62.0752C326.187 63.4365 322.823 64.1172 319.3 64.1172C315.777 64.1172 312.413 63.4365 309.21 62.0752C306.007 60.6872 303.244 58.8454 300.922 56.5498C298.627 54.2275 296.785 51.4648 295.397 48.2617ZM292.754 27.001C291.233 30.5511 290.472 34.2747 290.472 38.1719C290.472 42.069 291.233 45.806 292.754 49.3828C294.276 52.9329 296.318 56.0026 298.88 58.5918C301.469 61.1543 304.539 63.1963 308.089 64.7178C311.666 66.2393 315.403 67 319.3 67C323.197 67 326.921 66.2393 330.471 64.7178C334.048 63.1963 337.117 61.1543 339.68 58.5918C342.269 56.0026 344.324 52.9329 345.846 49.3828C347.367 45.806 348.128 42.069 348.128 38.1719C348.128 34.2747 347.367 30.5511 345.846 27.001C344.324 23.4242 342.269 20.3545 339.68 17.792C337.117 15.2028 334.048 13.1475 330.471 11.626C326.921 10.1045 323.197 9.34375 319.3 9.34375C315.403 9.34375 311.666 10.1045 308.089 11.626C304.539 13.1475 301.469 15.2028 298.88 17.792C296.318 20.3545 294.276 23.4242 292.754 27.001ZM290.112 50.5039C288.43 46.5801 287.589 42.4694 287.589 38.1719C287.589 33.8743 288.43 29.777 290.112 25.8799C291.793 21.9561 294.049 18.5794 296.878 15.75C299.708 12.9206 303.071 10.665 306.968 8.9834C310.892 7.30176 315.003 6.46094 319.3 6.46094C323.598 6.46094 327.695 7.30176 331.592 8.9834C335.516 10.665 338.892 12.9206 341.722 15.75C344.551 18.5794 346.807 21.9561 348.489 25.8799C350.17 29.777 351.011 33.8743 351.011 38.1719C351.011 42.4694 350.17 46.5801 348.489 50.5039C346.807 54.401 344.551 57.7643 341.722 60.5938C338.892 63.4232 335.516 65.6787 331.592 67.3604C327.695 69.042 323.598 69.8828 319.3 69.8828C315.003 69.8828 310.892 69.042 306.968 67.3604C303.071 65.6787 299.708 63.4232 296.878 60.5938C294.049 57.7643 291.793 54.401 290.112 50.5039Z" fill="url(#paint5_linear)"/>
<defs>
<linearGradient id="paint0_linear" x1="13.6615" y1="-2.58952" x2="348.107" y2="68.4038" gradientUnits="userSpaceOnUse">
<stop offset="0.103174" stop-color="#F602FB"/>
<stop offset="1" stop-color="#001DFB"/>
</linearGradient>
<linearGradient id="paint1_linear" x1="13.6615" y1="-2.58952" x2="348.107" y2="68.4038" gradientUnits="userSpaceOnUse">
<stop offset="0.103174" stop-color="#F602FB"/>
<stop offset="1" stop-color="#001DFB"/>
</linearGradient>
<linearGradient id="paint2_linear" x1="13.6615" y1="-2.58952" x2="348.107" y2="68.4038" gradientUnits="userSpaceOnUse">
<stop offset="0.103174" stop-color="#F602FB"/>
<stop offset="1" stop-color="#001DFB"/>
</linearGradient>
<linearGradient id="paint3_linear" x1="13.6615" y1="-2.58952" x2="348.107" y2="68.4038" gradientUnits="userSpaceOnUse">
<stop offset="0.103174" stop-color="#F602FB"/>
<stop offset="1" stop-color="#001DFB"/>
</linearGradient>
<linearGradient id="paint4_linear" x1="13.6615" y1="-2.58952" x2="348.107" y2="68.4038" gradientUnits="userSpaceOnUse">
<stop offset="0.103174" stop-color="#F602FB"/>
<stop offset="1" stop-color="#001DFB"/>
</linearGradient>
<linearGradient id="paint5_linear" x1="13.6615" y1="-2.58952" x2="348.107" y2="68.4038" gradientUnits="userSpaceOnUse">
<stop offset="0.103174" stop-color="#F602FB"/>
<stop offset="1" stop-color="#001DFB"/>
</linearGradient>
</defs>
</svg>
